<?xml version="1.0" encoding="UTF-8" standalone="no"?>
<!-- Created with Inkscape (http://www.inkscape.org/) -->

<svg
   xmlns:dc="http://purl.org/dc/elements/1.1/"
   xmlns:cc="http://creativecommons.org/ns#"
   xmlns:rdf="http://www.w3.org/1999/02/22-rdf-syntax-ns#"
   xmlns:svg="http://www.w3.org/2000/svg"
   xmlns="http://www.w3.org/2000/svg"
   xmlns:xlink="http://www.w3.org/1999/xlink"
   xmlns:sodipodi="http://sodipodi.sourceforge.net/DTD/sodipodi-0.dtd"
   xmlns:inkscape="http://www.inkscape.org/namespaces/inkscape"
   width="396.77292"
   height="90.311287"
   id="svg2"
   version="1.1"
   inkscape:version="0.91 r13725"
   sodipodi:docname="orange.svg">
  <defs
     id="defs4">
    <linearGradient
       gradientUnits="userSpaceOnUse"
       xlink:href="#linearGradient10230"
       id="linearGradient6077"
       y2="62.473221"
       x2="56.580036"
       y1="161.53806"
       x1="160.0414" />
    <linearGradient
       gradientUnits="userSpaceOnUse"
       xlink:href="#linearGradient10230"
       id="linearGradient5505"
       y2="70.676697"
       x2="58.854153"
       y1="147.36842"
       x1="147.91277" />
    <linearGradient
       id="linearGradient10230">
      <stop
         offset="0"
         style="stop-color:#000000;stop-opacity:1"
         id="stop10232" />
      <stop
         offset="1"
         style="stop-color:#5f5f5f;stop-opacity:1"
         id="stop10234" />
    </linearGradient>
  </defs>
  <sodipodi:namedview
     id="base"
     pagecolor="#808080"
     bordercolor="#666666"
     borderopacity="1.0"
     inkscape:pageopacity="0"
     inkscape:pageshadow="2"
     inkscape:zoom="2"
     inkscape:cx="178.9912"
     inkscape:cy="105.79913"
     inkscape:document-units="px"
     inkscape:current-layer="layer1"
     showgrid="false"
     inkscape:window-width="1280"
     inkscape:window-height="738"
     inkscape:window-x="-6"
     inkscape:window-y="-6"
     inkscape:window-maximized="1"
     width="744.09px"
     fit-margin-top="5"
     fit-margin-left="5"
     fit-margin-right="5"
     fit-margin-bottom="5"
     inkscape:showpageshadow="false" />
  <metadata
     id="metadata7">
    <rdf:RDF>
      <cc:Work
         rdf:about="">
        <dc:format>image/svg+xml</dc:format>
        <dc:type
           rdf:resource="http://purl.org/dc/dcmitype/StillImage" />
        <dc:title></dc:title>
      </cc:Work>
    </rdf:RDF>
  </metadata>
  <g
     inkscape:label="Capa 1"
     inkscape:groupmode="layer"
     id="layer1"
     transform="translate(478.798,-319.87833)">
    <text
       sodipodi:linespacing="125%"
       id="text3360"
       y="326.02371"
       x="-572.66785"
       style="font-style:normal;font-variant:normal;font-weight:bold;font-stretch:normal;font-size:22.5px;line-height:125%;font-family:serif;-inkscape-font-specification:'serif Bold';letter-spacing:0px;word-spacing:0px;fill:#000000;fill-opacity:1;stroke:none;stroke-width:1px;stroke-linecap:butt;stroke-linejoin:miter;stroke-opacity:1"
       xml:space="preserve"><tspan
         y="326.02371"
         x="-572.66785"
         id="tspan3362"
         sodipodi:role="line" /></text>
    <text
       sodipodi:linespacing="125%"
       id="text3364"
       y="357.02371"
       x="-379.66785"
       style="font-style:normal;font-variant:normal;font-weight:bold;font-stretch:normal;font-size:22.5px;line-height:125%;font-family:serif;-inkscape-font-specification:'serif Bold';letter-spacing:0px;word-spacing:0px;fill:#000000;fill-opacity:1;stroke:none;stroke-width:1px;stroke-linecap:butt;stroke-linejoin:miter;stroke-opacity:1"
       xml:space="preserve"><tspan
         y="357.02371"
         x="-379.66785"
         id="tspan3366"
         sodipodi:role="line" /></text>
    <text
       sodipodi:linespacing="125%"
       id="text3368"
       y="345.97165"
       x="-555.21021"
       style="font-style:normal;font-variant:normal;font-weight:bold;font-stretch:normal;font-size:22.5px;line-height:125%;font-family:serif;-inkscape-font-specification:'serif Bold';letter-spacing:0px;word-spacing:0px;fill:#000000;fill-opacity:1;stroke:none;stroke-width:1px;stroke-linecap:butt;stroke-linejoin:miter;stroke-opacity:1"
       xml:space="preserve"><tspan
         y="345.97165"
         x="-555.21021"
         id="tspan3370"
         sodipodi:role="line" /></text>
    <text
       sodipodi:linespacing="0%"
       id="text3372"
       y="348.09299"
       x="-584.55518"
       style="font-style:normal;font-weight:normal;font-size:40px;line-height:0%;font-family:sans-serif;letter-spacing:0px;word-spacing:0px;fill:#000000;fill-opacity:1;stroke:none;stroke-width:1px;stroke-linecap:butt;stroke-linejoin:miter;stroke-opacity:1"
       xml:space="preserve"><tspan
         style="font-style:normal;font-variant:normal;font-weight:bold;font-stretch:normal;font-size:22.5px;font-family:serif;-inkscape-font-specification:'serif Bold';text-align:start;writing-mode:lr-tb;text-anchor:start;fill:#ffffff"
         y="348.09299"
         x="-584.55518"
         id="tspan3374"
         sodipodi:role="line" /></text>
    <g
       id="g8398"
       transform="translate(-9.5,0)"
       inkscape:export-xdpi="90"
       inkscape:export-ydpi="90">
      <g
         id="g85636"
         transform="matrix(1.6122865,0,0,1.6870228,-159.05066,379.99443)">
        <g
           transform="matrix(0.08671811,-0.12222765,-0.13415048,-0.08671811,-135.92202,8.3711207)"
           style="fill:#fc4a1a;fill-opacity:1;stroke:#fc4a1a;stroke-width:1.00044;stroke-miterlimit:4;stroke-dasharray:none;stroke-opacity:1"
           id="g4315">
          <path
             inkscape:connector-curvature="0"
             d="m 115.14364,-52.055267 -9.73913,9.963976 c -1.66354,1.701954 -2.44597,4.063721 -3.02557,6.363174 -2.08759,8.282106 3.51026,12.646301 3.76369,18.088729 2.55924,0.215388 9.755,5.70205 10.59826,4.296322 4.98967,-8.317773 -2.45735,-37.240318 -1.59725,-38.712201 z"
             id="path1306"
             style="fill:#fc4a1a;fill-opacity:1;fill-rule:evenodd;stroke:#fc4a1a;stroke-width:1.00044;stroke-miterlimit:4;stroke-dasharray:none;stroke-opacity:1" />
          <path
             inkscape:connector-curvature="0"
             d="m 56.529629,-30.198282 c 0,0 -3.857126,27.8682644 -8.174662,41.245803 1.30825,0.891008 2.5758,0.934453 3.780921,-0.40906 C 55.801061,6.5523926 61.376457,-24.07575 63.433727,-36.759 l -6.904098,6.560718 z"
             id="path2202"
             style="fill:#fc4a1a;fill-opacity:1;fill-rule:evenodd;stroke:#fc4a1a;stroke-width:1.00044;stroke-miterlimit:4;stroke-dasharray:none;stroke-opacity:1" />
          <path
             inkscape:connector-curvature="0"
             d="m 158.03601,41.056987 c -0.58765,-0.154838 -1.21913,-0.247598 -1.88478,-0.28959 -6.83461,-0.431131 -10.03913,2.478544 -12.1897,7.269888 1.52248,-0.492011 3.33014,-0.69188 5.5033,-0.554795 10.65048,0.671842 11.52853,17.967117 20.79281,8.651524 l 6.99684,-7.035606 c -5.86971,-8.111114 -10.85384,-5.83762 -19.21847,-8.041421 z"
             id="path2200"
             style="fill:#fc4a1a;fill-opacity:1;fill-rule:evenodd;stroke:#fc4a1a;stroke-width:1.00044;stroke-miterlimit:4;stroke-dasharray:none;stroke-opacity:1" />
          <path
             inkscape:connector-curvature="0"
             d="m 96.426096,107.64647 -7.582473,7.76807 c -0.82686,0.8471 -1.119823,2.34079 -1.350581,4.23237 -1.161751,9.52321 43.572948,23.10723 52.069448,14.86162 l 8.70208,-8.44512 c -11.27842,5.37403 -47.96229,-17.58571 -51.838474,-18.41694 z"
             id="path2194"
             style="fill:#fc4a1a;fill-opacity:1;fill-rule:evenodd;stroke:#fc4a1a;stroke-width:1.00044;stroke-miterlimit:4;stroke-dasharray:none;stroke-opacity:1" />
          <path
             inkscape:connector-curvature="0"
             d="M 18.783685,-2.1247468 7.3469761,10.932039 C 0.08315845,19.224818 -4.2630006,29.926793 3.7512016,37.362237 11.765401,44.797685 16.934782,31.907723 24.796784,40.541362 33.108769,49.669137 7.8841563,90.543953 5.7484523,93.965935 L 12.335358,87.412361 C 13.332331,85.825411 55.810122,42.856123 47.294949,33.505218 39.432947,24.871579 18.247237,-1.3596647 18.783685,-2.1247468 Z"
             id="path2221"
             style="fill:#fc4a1a;fill-opacity:1;fill-rule:evenodd;stroke:#fc4a1a;stroke-width:1.00044;stroke-miterlimit:4;stroke-dasharray:none;stroke-opacity:1" />
          <path
             inkscape:connector-curvature="0"
             d="M 65.150542,103.6899 C 51.358595,103.56602 12.294587,87.488508 12.294587,87.488508 c 0,0 0.02185,-0.04602 0.04075,-0.07615 l -6.5869061,6.553574 c -0.093757,0.150194 -0.1402612,0.237666 -0.1402612,0.237666 0,0 45.4753913,23.732082 52.7339513,16.385522 l 6.808421,-6.89922 z"
             id="path2198"
             style="fill:#fc4a1a;fill-opacity:1;fill-rule:evenodd;stroke:#fc4a1a;stroke-width:1.00044;stroke-miterlimit:4;stroke-dasharray:none;stroke-opacity:1" />
          <path
             inkscape:connector-curvature="0"
             d="m 84.798617,69.480119 c -6.507674,-1.831492 -19.051896,2.132311 -24.083385,7.755022 -0.79221,0.885296 3.278313,4.771155 2.939411,5.666103 5.532129,-2.881543 11.664924,-1.260288 19.695627,2.493221 10.12756,4.733576 19.11987,11.563585 17.59138,20.209305 3.10184,3.36649 14.50768,-8.404579 15.65221,-12.66257 2.45361,-9.128154 -29.34612,-22.771808 -31.795243,-23.461081 z"
             id="path2196"
             style="fill:#fc4a1a;fill-opacity:1;fill-rule:evenodd;stroke:#fc4a1a;stroke-width:1.00044;stroke-miterlimit:4;stroke-dasharray:none;stroke-opacity:1" />
        </g>
        <path
           style="fill:#f96e49;fill-opacity:1;fill-rule:nonzero;stroke:#f13e0c;stroke-width:0.15471904;stroke-linecap:butt;stroke-linejoin:round;stroke-miterlimit:4;stroke-dasharray:none;stroke-opacity:1"
           id="path1308"
           d="m -125.52927,3.8715167 c 0,0 0.2364,-7.5336506 1.81718,-7.4199044 1.54853,0.1114268 1.23895,1.7006506 2.90112,2.2963294 1.60583,0.57548771 3.61317,-0.1978908 4.23819,-2.3660014 0.62175,-2.1567409 -0.48483,-3.7828651 -2.1011,-4.3237663 -2.14805,-0.7188692 -2.65355,0.9687167 -3.7375,0.084988 -1.16885,-0.9529496 2.49645,-6.964724 1.62742,-8.114241 -0.96534,-1.276903 -4.46105,-2.051162 -6.46459,-1.542734 -2.00354,0.50843 0.19225,1.931147 -0.64121,3.291191 -0.83346,1.360045 -1.99272,0.939499 -3.57646,0.407546 -1.58374,-0.531951 -2.38535,-0.950443 -2.18637,-2.485008 0.19899,-1.534566 3.52555,-1.406167 2.23929,-2.359306 -1.28626,-0.953137 -7.13588,-2.626378 -9.01118,-1.900736 -1.72162,0.666178 -3.90046,6.970243 -2.52217,7.65408 1.57327,0.780581 1.45856,-0.979403 2.89588,-0.487726 1.43732,0.491678 1.59298,2.252222 1.34029,3.9646589 -0.25269,1.7124375 -0.71235,2.7097495 -2.35104,2.8850909 -1.63869,0.1753406 -1.64274,-2.0679186 -3.19778,-2.0140485 -1.64176,0.056875 -2.37468,7.86588441 -2.37468,7.86588441 0,0 8.33839,0.4229708 8.86419,2.30980459 0.47643,1.7096462 -1.70234,1.2227175 -1.39985,2.8470611 0.30249,1.6243459 2.10385,1.7077969 3.85722,1.8529619 1.75336,0.145166 3.01186,-0.483646 3.24573,-1.5687515 0.19054,-0.884046 -2.05913,-3.5095457 -0.80235,-3.6454564 1.25678,-0.13591069 7.33977,2.7680836 7.33977,2.7680836 z"
           inkscape:connector-curvature="0" />
        <g
           transform="matrix(0.08671811,-0.12222765,-0.13415048,-0.08671811,-108.31846,-16.226567)"
           id="g4041"
           style="fill:#f96e49;fill-opacity:1;fill-rule:nonzero;stroke:#f13e0c;stroke-width:1.00044;stroke-miterlimit:4;stroke-dasharray:none;stroke-opacity:1">
          <g
             transform="scale(0.99187466,1.0081919)"
             id="text3116"
             style="font-style:normal;font-weight:normal;font-size:73.18387604px;line-height:125%;font-family:Sans;letter-spacing:0px;word-spacing:0px;fill:#f96e49;fill-opacity:1;stroke:#f13e0c;stroke-width:1.00044;stroke-miterlimit:4;stroke-dasharray:none;stroke-opacity:1" />
          <g
             transform="scale(0.99187466,1.0081919)"
             id="text3120"
             style="font-style:normal;font-weight:normal;font-size:73.18387604px;line-height:125%;font-family:Sans;letter-spacing:0px;word-spacing:0px;fill:#f96e49;fill-opacity:1;stroke:#f13e0c;stroke-width:1.00044;stroke-miterlimit:4;stroke-dasharray:none;stroke-opacity:1" />
        </g>
      </g>
      <text
         transform="scale(1.0006135,0.99938688)"
         xml:space="preserve"
         style="font-style:normal;font-variant:normal;font-weight:100;font-stretch:normal;font-size:20.02841187px;line-height:0%;font-family:'Hoefler Text';-inkscape-font-specification:'Hoefler Text Thin';text-align:start;letter-spacing:0px;word-spacing:0px;writing-mode:lr-tb;text-anchor:start;fill:#ffffff;fill-opacity:1;stroke:none;stroke-width:0.133;stroke-linecap:butt;stroke-linejoin:miter;stroke-miterlimit:4;stroke-dasharray:none;stroke-opacity:1"
         x="-304.31021"
         y="365.90576"
         id="text3376"
         sodipodi:linespacing="0%"><tspan
           sodipodi:role="line"
           id="tspan3378"
           x="-304.31021"
           y="365.90576"
           style="font-style:normal;font-variant:normal;font-weight:100;font-stretch:normal;font-size:20.02841187px;line-height:0%;font-family:'Hoefler Text';-inkscape-font-specification:'Hoefler Text Thin';text-align:start;writing-mode:lr-tb;baseline-shift:baseline;text-anchor:start;fill:#ffffff;fill-opacity:1;stroke:none;stroke-width:0.133;stroke-miterlimit:4;stroke-dasharray:none;stroke-opacity:1">Click here </tspan><tspan
           id="tspan7573"
           sodipodi:role="line"
           x="-304.31021"
           y="365.90576"
           style="font-style:normal;font-variant:normal;font-weight:100;font-stretch:normal;font-size:20.02841187px;line-height:0%;font-family:'Hoefler Text';-inkscape-font-specification:'Hoefler Text Thin';text-align:start;writing-mode:lr-tb;baseline-shift:baseline;text-anchor:start;fill:#ffffff;fill-opacity:1;stroke:none;stroke-width:0.133;stroke-miterlimit:4;stroke-dasharray:none;stroke-opacity:1" /><tspan
           id="tspan7575"
           sodipodi:role="line"
           x="-304.31021"
           y="365.90576"
           style="font-style:normal;font-variant:normal;font-weight:100;font-stretch:normal;font-size:20.02841187px;line-height:0%;font-family:'Hoefler Text';-inkscape-font-specification:'Hoefler Text Thin';text-align:start;writing-mode:lr-tb;baseline-shift:baseline;text-anchor:start;fill:#ffffff;fill-opacity:1;stroke:none;stroke-width:0.133;stroke-miterlimit:4;stroke-dasharray:none;stroke-opacity:1" /></text>
      <text
         transform="scale(1.0006135,0.99938689)"
         sodipodi:linespacing="125%"
         id="text7577"
         y="388.25003"
         x="-337.49905"
         style="font-style:normal;font-weight:normal;font-size:22.88961411px;line-height:125%;font-family:sans-serif;letter-spacing:0px;word-spacing:0px;fill:#000000;fill-opacity:1;stroke:none;stroke-width:1px;stroke-linecap:butt;stroke-linejoin:miter;stroke-opacity:1"
         xml:space="preserve"><tspan
           style="font-style:normal;font-variant:normal;font-weight:100;font-stretch:normal;font-size:20.02841187px;font-family:'Hoefler Text';-inkscape-font-specification:'Hoefler Text Thin';fill:#ffffff"
           y="388.25003"
           x="-337.49905"
           id="tspan7579"
           sodipodi:role="line">for a random article</tspan></text>
    </g>
  </g>
</svg>
